<svg width="24" height="25" viewBox="0 0 24 25" fill="none" xmlns="http://www.w3.org/2000/svg">
<g clip-path="url(#clip0_2067_67)">
<path fill-rule="evenodd" clip-rule="evenodd" d="M7.5 19.5C7.89782 19.5 8.27936 19.658 8.56066 19.9393C8.84196 20.2206 9 20.6022 9 21C9 21.3978 8.84196 21.7794 8.56066 22.0607C8.27936 22.342 7.89782 22.5 7.5 22.5C7.10218 22.5 6.72064 22.342 6.43934 22.0607C6.15804 21.7794 6 21.3978 6 21C6 20.6022 6.15804 20.2206 6.43934 19.9393C6.72064 19.658 7.10218 19.5 7.5 19.5ZM17.5 19.5C17.8978 19.5 18.2794 19.658 18.5607 19.9393C18.842 20.2206 19 20.6022 19 21C19 21.3978 18.842 21.7794 18.5607 22.0607C18.2794 22.342 17.8978 22.5 17.5 22.5C17.1022 22.5 16.7206 22.342 16.4393 22.0607C16.158 21.7794 16 21.3978 16 21C16 20.6022 16.158 20.2206 16.4393 19.9393C16.7206 19.658 17.1022 19.5 17.5 19.5ZM3.138 2.5C3.89654 2.50009 4.62689 2.78752 5.18203 3.30444C5.73717 3.82136 6.07589 4.52939 6.13 5.286L6.145 5.5H19.802C20.095 5.49996 20.3844 5.56429 20.6498 5.68844C20.9152 5.81259 21.15 5.99354 21.3378 6.21848C21.5255 6.44342 21.6615 6.70686 21.7362 6.99017C21.8109 7.27348 21.8224 7.56974 21.77 7.858L20.133 16.858C20.0492 17.3188 19.8062 17.7356 19.4466 18.0357C19.0869 18.3357 18.6334 18.5001 18.165 18.5H6.931C6.42514 18.5 5.93807 18.3083 5.56789 17.9636C5.1977 17.6188 4.97192 17.1466 4.936 16.642L4.136 5.429C4.11802 5.17645 4.00492 4.94012 3.81951 4.7677C3.6341 4.59528 3.39019 4.49961 3.137 4.5H3C2.73478 4.5 2.48043 4.39464 2.29289 4.20711C2.10536 4.01957 2 3.76522 2 3.5C2 3.23478 2.10536 2.98043 2.29289 2.79289C2.48043 2.60536 2.73478 2.5 3 2.5H3.138ZM19.802 7.5H6.288L6.931 16.5H18.165L19.802 7.5Z" fill="#030304"/>
</g>
<defs>
<clipPath id="clip0_2067_67">
<rect width="24" height="24" fill="white" transform="translate(0 0.5)"/>
</clipPath>
</defs>
</svg>
