<svg width="24" height="25" viewBox="0 0 24 25" fill="none" xmlns="http://www.w3.org/2000/svg">
<g clip-path="url(#clip0_2067_61)">
<path fill-rule="evenodd" clip-rule="evenodd" d="M10.5003 2.5C9.14485 2.50012 7.80912 2.82436 6.60451 3.44569C5.3999 4.06702 4.36135 4.96742 3.57549 6.07175C2.78963 7.17609 2.27926 8.45235 2.08696 9.79404C1.89466 11.1357 2.026 12.504 2.47003 13.7846C2.91406 15.0652 3.6579 16.2211 4.63949 17.1557C5.62108 18.0904 6.81196 18.7768 8.11277 19.1576C9.41358 19.5384 10.7866 19.6026 12.1173 19.3449C13.448 19.0872 14.6977 18.515 15.7623 17.676L19.4143 21.328C19.6029 21.5102 19.8555 21.611 20.1177 21.6087C20.3799 21.6064 20.6307 21.5012 20.8161 21.3158C21.0015 21.1304 21.1066 20.8796 21.1089 20.6174C21.1112 20.3552 21.0104 20.1026 20.8283 19.914L17.1763 16.262C18.1642 15.0086 18.7794 13.5024 18.9514 11.9157C19.1233 10.3291 18.8451 8.72602 18.1485 7.29009C17.4519 5.85417 16.3651 4.64336 15.0126 3.79623C13.66 2.94911 12.0962 2.49989 10.5003 2.5ZM4.00025 11C4.00025 9.27609 4.68507 7.62279 5.90406 6.40381C7.12305 5.18482 8.77635 4.5 10.5003 4.5C12.2242 4.5 13.8775 5.18482 15.0964 6.40381C16.3154 7.62279 17.0003 9.27609 17.0003 11C17.0003 12.7239 16.3154 14.3772 15.0964 15.5962C13.8775 16.8152 12.2242 17.5 10.5003 17.5C8.77635 17.5 7.12305 16.8152 5.90406 15.5962C4.68507 14.3772 4.00025 12.7239 4.00025 11Z" fill="#030304"/>
</g>
<defs>
<clipPath id="clip0_2067_61">
<rect width="24" height="24" fill="white" transform="translate(0 0.5)"/>
</clipPath>
</defs>
</svg>
